<svg width="47" height="55" viewBox="0 0 47 55" fill="none" xmlns="http://www.w3.org/2000/svg">
<g filter="url(#filter0_d)">
<path d="M30.9268 0H12.2878C9.56481 0 7.34859 2.21776 7.34859 4.93921V23.2035H6.86617C5.76715 23.2035 4.87585 24.094 4.87585 25.194V37.2644C4.87585 38.3643 5.76706 39.2547 6.86617 39.2547H7.34859V41.468C7.34859 44.1924 9.56481 46.4072 12.2878 46.4072H37.72C40.4412 46.4072 42.6577 44.1923 42.6577 41.468V11.6898L30.9268 0ZM10.0973 27.3723C10.6806 27.2737 11.5004 27.1994 12.6556 27.1994C13.8229 27.1994 14.6549 27.4222 15.214 27.8698C15.748 28.2916 16.1084 28.9878 16.1084 29.8071C16.1084 30.6262 15.8353 31.3226 15.3384 31.7943C14.6922 32.4026 13.7365 32.6757 12.6185 32.6757C12.3697 32.6757 12.1467 32.6634 11.9723 32.6392V35.6323H10.0973V27.3723ZM37.72 43.3824H12.2878C11.2334 43.3824 10.3749 42.5238 10.3749 41.468V39.2547H34.0829C35.1821 39.2547 36.0733 38.3643 36.0733 37.2644V25.194C36.0733 24.094 35.1821 23.2035 34.0829 23.2035H10.3749V4.93921C10.3749 3.8864 11.2335 3.02782 12.2878 3.02782L29.7952 3.00953V9.48089C29.7952 11.3711 31.3289 12.9062 33.2205 12.9062L39.5599 12.888L39.6313 41.4679C39.6313 42.5238 38.7742 43.3824 37.72 43.3824ZM17.3174 35.5944V27.3723C18.0128 27.2616 18.9192 27.1994 19.8758 27.1994C21.4655 27.1994 22.4964 27.4846 23.3041 28.0928C24.1734 28.739 24.7194 29.7691 24.7194 31.2481C24.7194 32.85 24.1361 33.9559 23.3283 34.6385C22.4469 35.3711 21.1052 35.7186 19.4661 35.7186C18.4845 35.7186 17.7891 35.6564 17.3174 35.5944ZM30.8724 30.7264V32.266H27.8664V35.6323H25.9664V27.2616H31.0832V28.8133H27.8664V30.7264H30.8724Z" fill="#8A8A8C"/>
<path d="M29.7952 3.00953L29.7957 3.50953L29.7952 3.50953V3.00953ZM29.7952 3.00953H29.2952V3.01006L29.7952 3.00953ZM39.5599 12.888L39.5614 13.388L39.5612 13.388L39.5599 12.888ZM39.5599 12.888L39.0599 12.8893V12.8895L39.5599 12.888ZM7.34859 23.7035H7.84859V23.2035V4.93921C7.84859 2.4938 9.84105 0.5 12.2878 0.5H30.7203L42.1577 11.8974V41.468C42.1577 43.9162 40.1651 45.9072 37.72 45.9072H12.2878C9.84085 45.9072 7.84859 43.9162 7.84859 41.468V39.2547V38.7547H7.34859H6.86617C6.04304 38.7547 5.37585 38.088 5.37585 37.2644V25.194C5.37585 24.3702 6.04317 23.7035 6.86617 23.7035H7.34859ZM10.014 26.8792L9.59728 26.9497V27.3723V35.6323V36.1323H10.0973H11.9723H12.4723V35.6323V33.1743C12.5204 33.1752 12.5692 33.1757 12.6185 33.1757C13.8065 33.1757 14.9075 32.8867 15.6811 32.1584L15.6827 32.1569C16.2966 31.574 16.6084 30.7369 16.6084 29.8071C16.6084 28.8402 16.1823 27.9981 15.5252 27.4784C14.8385 26.9293 13.8729 26.6994 12.6556 26.6994C11.4801 26.6994 10.6314 26.7749 10.014 26.8792ZM10.3749 38.7547H9.87487L12.2878 2.52782V3.02759L12.2873 2.52782L12.2875 2.52782C10.9575 2.52799 9.87487 3.61008 9.87487 4.93921V23.2035V23.7035H10.3749H34.0829C34.9061 23.7035 35.5733 24.3702 35.5733 25.194V37.2644C35.5733 38.088 34.9061 38.7547 34.0829 38.7547H10.3749ZM33.2198 12.4062L33.2191 12.4062L33.2205 12.9062V12.4062C33.2203 12.4062 33.2201 12.4062 33.2198 12.4062ZM16.8174 35.5943V36.0329L17.2521 36.0901C17.7455 36.155 18.4627 36.2186 19.4661 36.2186C21.1599 36.2186 22.6384 35.8621 23.6479 35.023L23.651 35.0204C24.5827 34.2332 25.2194 32.9815 25.2194 31.2481C25.2194 29.6327 24.6151 28.4449 23.6036 27.6924C22.6768 26.995 21.5237 26.6994 19.8758 26.6994C18.9009 26.6994 17.9671 26.7625 17.2388 26.8785L16.8174 26.9455V27.3723V35.5943ZM31.3724 30.7264V30.2264H30.8724H28.3664V29.3133H31.0832H31.5832V28.8133V27.2616V26.7616H31.0832H25.9664H25.4664V27.2616V35.6323V36.1323H25.9664H27.8664H28.3664V35.6323V32.766H30.8724H31.3724V32.266V30.7264Z" stroke="black"/>
</g>
<defs>
<filter id="filter0_d" x="0.875854" y="0" width="45.7819" height="54.4072" filterUnits="userSpaceOnUse" color-interpolation-filters="sRGB">
<feFlood flood-opacity="0" result="BackgroundImageFix"/>
<feColorMatrix in="SourceAlpha" type="matrix" values="0 0 0 0 0 0 0 0 0 0 0 0 0 0 0 0 0 0 127 0" result="hardAlpha"/>
<feOffset dy="4"/>
<feGaussianBlur stdDeviation="2"/>
<feComposite in2="hardAlpha" operator="out"/>
<feColorMatrix type="matrix" values="0 0 0 0 0 0 0 0 0 0 0 0 0 0 0 0 0 0 0.25 0"/>
<feBlend mode="normal" in2="BackgroundImageFix" result="effect1_dropShadow"/>
<feBlend mode="normal" in="SourceGraphic" in2="effect1_dropShadow" result="shape"/>
</filter>
</defs>
</svg>
