<svg width="18" height="18" viewBox="0 0 18 18" fill="none" xmlns="http://www.w3.org/2000/svg">
<g clip-path="url(#clip0)">
<path d="M17.3124 8.15305C17.3122 8.15285 17.312 8.15261 17.3118 8.15241L13.7887 4.64635C13.5248 4.3837 13.0979 4.38468 12.8352 4.64864C12.5725 4.91257 12.5735 5.33947 12.8374 5.60216L15.2028 7.95607H0.923755C0.551371 7.95607 0.249512 8.25793 0.249512 8.63031C0.249512 9.0027 0.551371 9.30456 0.923755 9.30456H15.2028L12.8375 11.6585C12.5735 11.9212 12.5725 12.3481 12.8352 12.612C13.0979 12.876 13.5249 12.8769 13.7888 12.6143L17.3118 9.10822C17.312 9.10802 17.3122 9.10778 17.3124 9.10758C17.5765 8.84402 17.5757 8.41574 17.3124 8.15305Z" fill="#333333" fill-opacity="0.5"/>
</g>
<defs>
<clipPath id="clip0">
<rect width="17.2606" height="17.2606" fill="white" transform="translate(0.25)"/>
</clipPath>
</defs>
</svg>
